<?xml version="1.0" standalone="no"?>
<!DOCTYPE svg PUBLIC "-//W3C//DTD SVG 20010904//EN"
 "http://www.w3.org/TR/2001/REC-SVG-20010904/DTD/svg10.dtd">
<svg version="1.0" xmlns="http://www.w3.org/2000/svg"
 width="850.000000pt" height="850.000000pt" viewBox="0 0 850.000000 850.000000"
 preserveAspectRatio="xMidYMid meet">
<metadata>
Created by potrace 1.11, written by Peter Selinger 2001-2013
</metadata>
<g transform="translate(0.000000,850.000000) scale(0.100000,-0.100000)"
fill="#000000" stroke="none">
<path d="M4085 8301 c-16 -4 -46 -15 -66 -25 -46 -22 -63 -22 -119 -1 -35 13
-61 15 -115 10 -113 -12 -243 -17 -355 -16 -184 3 -200 2 -210 -4 -6 -4 -41
-7 -78 -7 -37 -1 -84 -7 -104 -14 -30 -10 -44 -10 -80 0 -45 14 -66 13 -133
-6 -22 -6 -62 -12 -90 -13 -27 -1 -64 -9 -82 -18 -18 -9 -49 -17 -70 -17 -42
0 -127 -21 -162 -39 -37 -20 -127 -40 -163 -37 -19 2 -52 -3 -74 -10 -21 -8
-55 -17 -74 -19 -94 -13 -129 -31 -195 -101 -51 -54 -54 -60 -76 -141 -20 -72
-22 -103 -23 -408 -1 -181 2 -355 6 -385 9 -56 28 -110 39 -110 6 0 17 -31 17
-47 0 -3 6 -10 14 -14 10 -7 10 -9 0 -9 -7 0 -11 -3 -9 -7 4 -8 19 -118 20
-155 1 -10 5 -18 8 -18 4 0 11 -10 15 -22 4 -13 10 -25 13 -28 3 -3 19 -20 34
-38 l27 -34 -30 -36 c-16 -20 -30 -42 -30 -49 0 -6 -20 -41 -44 -76 -24 -36
-51 -78 -59 -93 -9 -16 -25 -39 -36 -51 -12 -12 -21 -26 -21 -31 0 -6 -18 -26
-40 -45 -21 -20 -48 -54 -60 -77 -11 -22 -25 -40 -30 -40 -6 0 -10 -7 -10 -16
0 -8 -4 -12 -10 -9 -5 3 -10 -1 -10 -9 0 -9 -3 -16 -8 -16 -4 0 -23 -28 -42
-62 -18 -35 -45 -74 -59 -88 -14 -14 -35 -41 -45 -60 -11 -19 -30 -55 -43 -78
-20 -38 -68 -107 -83 -122 -9 -8 -30 -61 -55 -135 -13 -38 -45 -113 -71 -165
-26 -52 -47 -101 -47 -107 0 -7 -3 -13 -7 -13 -3 0 -7 -10 -7 -22 -2 -41 -11
-96 -16 -105 -13 -21 -22 -183 -20 -363 2 -210 2 -333 1 -530 -1 -69 1 -175 3
-235 1 -61 -1 -116 -5 -124 -5 -7 -11 -135 -13 -284 -6 -348 -6 -383 -2 -557
1 -80 2 -217 1 -305 -1 -88 -1 -227 -2 -310 0 -82 -2 -258 -4 -390 -3 -132 -5
-274 -4 -315 0 -86 0 -77 -8 -153 -7 -61 14 -171 42 -225 7 -15 14 -35 14 -44
0 -9 5 -18 10 -20 9 -3 17 -27 25 -78 1 -8 6 -23 10 -32 4 -10 8 -29 9 -43 0
-14 4 -25 9 -25 4 0 7 -8 7 -18 0 -10 11 -40 24 -67 16 -30 23 -58 20 -74 -7
-31 28 -129 56 -159 11 -12 20 -25 20 -31 0 -10 195 -211 205 -211 3 0 19 -13
36 -29 34 -33 180 -111 244 -131 22 -7 46 -18 54 -24 8 -6 15 -10 15 -8 2 6
60 -10 72 -19 6 -5 19 -10 30 -12 10 -1 24 -6 31 -10 7 -4 29 -8 50 -9 21 0
43 -5 49 -9 23 -18 399 -26 399 -9 0 1 25 3 56 4 30 1 59 5 65 8 5 3 26 4 47
4 20 -1 37 3 37 9 0 5 4 4 9 -4 5 -8 11 -9 15 -3 3 6 15 8 26 5 11 -3 26 0 33
6 8 6 17 8 21 4 11 -11 155 -10 148 1 -3 5 2 7 11 3 9 -3 29 0 45 8 28 14 137
26 147 16 3 -2 13 -6 23 -7 29 -4 46 -9 58 -16 6 -4 21 -6 33 -3 11 2 21 1 21
-3 0 -9 500 -13 514 -5 4 3 42 7 85 9 42 1 90 6 106 9 57 12 265 13 265 1 0
-7 3 -7 8 -1 4 6 41 10 82 11 41 1 92 3 112 6 21 3 42 1 49 -6 9 -8 10 -8 5 1
-5 9 6 11 41 9 26 -1 56 1 66 6 11 6 17 5 17 -2 0 -6 5 -8 10 -5 6 4 22 8 36
11 18 3 23 1 18 -7 -5 -8 -3 -9 7 -3 15 9 13 9 84 18 28 3 60 8 73 10 12 3 22
0 22 -5 0 -6 6 -7 12 -3 19 12 48 12 48 1 0 -6 5 -6 13 0 6 5 100 10 208 11
108 0 215 5 237 11 22 6 67 13 102 16 34 3 66 7 71 10 5 3 50 8 101 11 51 2
98 6 103 8 6 2 39 -1 75 -6 36 -6 70 -10 75 -10 43 0 281 12 343 18 136 11
147 13 147 14 0 1 18 4 40 6 52 7 80 12 80 14 0 2 36 10 58 12 9 1 17 7 17 12
0 5 3 6 6 3 4 -3 15 -2 25 4 15 8 17 13 8 27 -10 16 -25 18 -108 17 -53 -1
-101 2 -108 7 -7 5 -14 5 -18 -2 -3 -6 -10 -8 -15 -5 -8 5 -87 17 -117 18 -7
0 -13 3 -13 7 0 8 -8 8 -225 14 -99 2 -180 5 -180 6 0 1 -49 4 -110 6 -110 4
-192 10 -253 16 -17 2 -37 1 -44 -3 -7 -4 -21 -3 -31 3 -12 6 -17 6 -13 0 3
-6 -15 -9 -49 -8 -30 1 -55 0 -55 -3 0 -4 -30 -5 -67 -4 -38 2 -119 4 -180 5
-67 2 -113 7 -113 13 0 7 -3 7 -8 0 -8 -11 -72 -15 -72 -5 0 3 -15 5 -32 3
-78 -8 -98 -8 -98 0 0 4 -5 5 -12 1 -16 -10 -90 -11 -110 -2 -10 5 -18 5 -18
1 0 -4 -20 -8 -45 -8 -25 0 -45 4 -45 8 0 5 -5 5 -11 1 -6 -3 -73 -8 -148 -9
-75 -2 -136 -4 -136 -5 0 -6 -158 -4 -161 2 -3 4 -11 5 -19 1 -8 -3 -15 0 -15
7 0 10 -3 10 -15 0 -9 -7 -15 -8 -15 -2 0 9 -45 26 -53 20 -2 -2 -11 3 -20 11
-10 7 -17 10 -17 7 0 -4 -10 -1 -22 6 -13 7 -26 11 -30 10 -5 -1 -8 2 -8 8 0
6 -3 9 -7 9 -5 -1 -10 0 -13 1 -29 11 -54 13 -92 7 -16 -2 -28 -1 -28 2 0 4
-24 7 -52 6 -29 0 -56 4 -60 10 -5 6 -8 5 -8 -3 0 -8 -5 -10 -12 -6 -7 5 -58
10 -113 11 -55 2 -138 5 -185 8 -87 4 -244 6 -315 4 -22 -1 -85 2 -140 5 -169
11 -185 12 -185 6 0 -12 -99 -8 -144 7 -27 9 -77 15 -110 15 -62 -1 -195 32
-251 62 -16 9 -38 16 -47 16 -10 0 -18 4 -18 8 0 4 -9 8 -20 9 -29 2 -84 38
-160 104 -36 30 -74 61 -85 67 -24 12 -36 34 -66 116 -12 32 -30 67 -40 77
-11 11 -16 19 -11 19 4 0 1 4 -7 9 -8 5 -16 22 -18 38 -1 15 -8 51 -15 78 -11
46 -13 105 -10 305 1 41 -2 127 -7 190 -8 111 -5 653 4 715 5 37 19 435 19
570 0 56 5 103 11 107 7 5 7 8 0 8 -6 0 -11 38 -13 91 -2 54 -9 106 -19 131
-13 33 -14 46 -5 72 7 18 14 100 16 182 2 82 8 158 12 169 4 11 7 33 5 50 -11
112 -11 198 -2 209 12 15 11 477 -1 469 -5 -2 -4 6 0 19 8 23 7 115 -2 233 -2
36 2 82 11 115 8 30 16 64 18 75 9 45 11 55 18 61 4 4 7 16 7 26 0 10 4 18 9
18 8 0 12 11 26 63 2 4 3 13 4 21 0 7 17 33 36 57 20 24 42 68 51 97 11 35 28
65 54 90 21 20 54 66 73 102 19 36 49 92 66 124 17 33 52 78 76 100 25 21 55
55 67 75 12 20 24 38 27 41 4 3 15 21 25 40 11 19 39 53 62 76 23 22 47 58 54
80 7 24 31 57 60 84 26 25 56 61 65 80 21 42 97 140 107 140 5 0 8 6 8 13 0 6
12 26 26 42 55 63 62 103 65 360 2 99 -1 117 -20 151 -29 51 -78 75 -161 77
l-65 2 -1 95 c-1 52 -3 97 -5 100 -8 15 -3 130 6 130 6 0 7 3 0 8 -5 4 -11 27
-11 52 -1 25 -5 59 -9 75 -17 69 -18 95 -3 95 8 0 63 6 124 14 60 8 152 18
204 21 52 4 111 9 130 11 19 1 98 6 175 10 167 7 240 11 240 13 0 1 63 4 140
6 77 3 190 7 250 10 61 4 154 7 207 8 54 1 98 4 98 7 0 3 26 4 58 3 31 -2 175
-5 319 -7 144 -2 266 -7 272 -10 5 -4 12 -2 16 4 4 6 11 7 17 4 6 -4 88 -8
182 -10 256 -4 488 -13 494 -18 2 -3 13 -1 23 5 11 5 19 6 19 1 0 -5 19 -9 43
-9 46 -1 229 -12 292 -18 22 -2 69 -7 105 -10 86 -8 142 -15 160 -20 13 -4 15
-46 18 -284 l3 -279 -68 -4 c-79 -4 -123 -28 -148 -82 -23 -48 -26 -76 -14
-136 5 -30 12 -100 15 -154 5 -102 16 -140 56 -188 13 -15 53 -71 90 -125 37
-54 75 -108 85 -119 10 -11 19 -26 21 -34 2 -8 8 -16 13 -18 5 -2 9 -8 9 -12
0 -5 17 -27 38 -48 21 -21 55 -71 76 -111 21 -40 47 -82 57 -92 11 -11 19 -22
20 -26 1 -16 46 -61 91 -91 29 -20 45 -38 42 -46 -3 -8 -1 -17 5 -21 6 -3 11
-15 11 -26 0 -10 7 -19 15 -19 8 0 15 -5 15 -10 0 -6 17 -25 37 -43 68 -60
113 -110 113 -126 0 -5 3 -11 8 -13 4 -1 20 -21 37 -43 20 -27 31 -56 36 -95
6 -53 48 -138 106 -219 10 -13 18 -33 19 -45 1 -12 6 -38 13 -59 7 -20 12 -72
10 -114 -5 -208 -2 -278 16 -318 12 -26 18 -69 20 -125 1 -47 7 -107 14 -135
7 -27 15 -129 17 -225 2 -96 6 -191 7 -210 5 -46 17 -137 24 -175 9 -46 9
-186 1 -225 -4 -19 -10 -58 -13 -87 -3 -28 -11 -69 -19 -90 -7 -21 -12 -47
-11 -58 2 -11 6 -46 9 -79 3 -32 11 -76 17 -97 9 -30 9 -45 -2 -71 -8 -19 -12
-56 -10 -88 2 -30 4 -70 5 -87 1 -18 4 -33 8 -33 4 0 5 -11 2 -25 -2 -14 4
-46 15 -70 11 -25 17 -45 14 -45 -3 0 -1 -6 5 -12 5 -7 8 -44 5 -83 -3 -67 -6
-250 -3 -250 2 0 8 -103 13 -218 1 -20 6 -37 12 -37 5 0 3 -5 -5 -10 -8 -5
-11 -10 -7 -10 4 0 3 -10 -4 -21 -6 -12 -7 -19 -1 -15 5 3 8 -14 7 -43 -2 -26
1 -54 5 -61 5 -7 4 -23 0 -36 -5 -12 -6 -25 -2 -28 10 -11 10 -60 0 -73 -5 -7
-5 -14 1 -17 5 -4 7 -16 4 -29 -3 -12 -6 -59 -7 -104 0 -46 -5 -83 -10 -83 -5
0 -3 -7 4 -15 10 -12 10 -15 -1 -15 -12 0 -12 -2 0 -9 8 -5 9 -11 3 -15 -6 -3
-9 -17 -7 -31 1 -14 -1 -25 -4 -25 -9 0 -7 -43 2 -57 4 -7 3 -14 -3 -18 -6 -4
-7 -12 -3 -18 11 -17 11 -29 0 -51 -6 -12 -6 -16 1 -12 6 4 11 -5 11 -21 2
-52 4 -63 14 -63 5 0 7 -15 5 -34 -2 -19 -1 -33 2 -31 3 2 5 -25 5 -61 0 -35
-2 -64 -5 -64 -7 0 -5 -184 2 -196 3 -5 4 -19 3 -32 -1 -12 1 -22 5 -22 4 0 5
-12 3 -27 -3 -22 0 -19 13 12 10 22 22 43 28 47 6 4 8 8 3 8 -4 0 -1 13 7 29
9 16 12 31 9 35 -4 3 -1 6 5 6 7 0 12 9 12 20 0 11 4 20 8 20 4 0 9 10 9 22 1
13 7 24 13 26 5 2 8 7 6 11 -3 4 3 37 13 73 13 47 15 70 8 77 -8 8 -7 11 2 11
7 0 9 5 6 10 -3 6 -2 10 3 10 5 0 7 12 4 26 -3 15 -1 24 4 21 5 -3 9 13 9 36
0 23 6 50 14 60 11 13 11 17 1 17 -9 0 -10 3 -1 13 6 8 8 17 4 20 -3 4 -1 7 6
7 8 0 11 6 7 16 -3 9 -3 21 1 27 4 7 8 23 10 37 3 27 10 65 13 65 2 0 9 37 13
70 2 17 6 35 9 40 3 6 6 35 7 65 5 98 8 127 15 139 4 6 2 11 -4 11 -6 0 -8 5
-3 13 12 19 14 36 18 117 3 67 10 115 15 115 2 0 4 23 6 50 1 28 3 50 4 50 1
0 3 10 6 22 2 12 13 38 24 59 12 20 19 43 16 51 -3 8 -1 11 4 8 6 -3 10 5 11
19 4 88 3 106 -3 106 -3 0 -4 17 -2 38 3 20 6 46 7 57 1 11 5 22 9 25 4 3 10
28 13 55 3 28 11 75 17 105 13 63 14 330 1 339 -12 8 -10 152 2 171 14 22 15
324 1 400 -6 36 -11 108 -10 160 3 169 15 623 19 675 7 114 6 191 -3 215 -5
14 -6 46 -3 71 9 56 7 246 -3 309 -13 84 -46 213 -59 228 -6 8 -11 18 -11 21
6 27 -132 296 -173 339 -31 32 -76 106 -90 150 -23 68 -64 126 -162 235 -52
57 -112 139 -106 145 2 3 0 11 -6 19 -6 7 -8 13 -3 13 5 0 5 4 -1 8 -13 9 -75
89 -75 96 0 5 -119 176 -130 186 -16 15 -85 113 -83 119 1 4 18 31 37 60 46
68 64 134 65 245 1 49 5 96 10 105 10 20 8 612 -3 629 -4 7 -3 12 1 12 5 0 8
19 7 43 -1 23 -3 42 -4 42 -1 0 -3 25 -5 55 -10 129 -25 166 -100 244 -79 81
-196 124 -439 162 -21 3 -48 8 -60 10 -93 19 -480 36 -508 22 -10 -5 -19 -4
-23 2 -4 6 -11 8 -16 4 -17 -10 -60 -15 -72 -7 -7 4 -20 9 -29 10 -9 2 -45 17
-80 34 -50 24 -76 31 -123 30 -33 0 -81 5 -106 11 -35 8 -62 8 -109 -1 -62
-12 -297 -16 -445 -7 -171 11 -371 14 -400 7z m-795 -71 c0 -14 -28 -19 -33
-5 -3 7 -3 15 0 18 7 7 33 -3 33 -13z m3205 -2580 c10 -11 16 -22 14 -25 -7
-6 -49 24 -49 36 0 15 16 10 35 -11z"/>
</g>
</svg>
